<svg width="200" height="90" viewBox="0 0 200 90" xmlns="http://www.w3.org/2000/svg" xmlns:sketch="http://www.bohemiancoding.com/sketch/ns"><title>Amazon</title><g sketch:type="MSLayerGroup" fill="none"><path d="M75.231 36.998c-2.74 0-5.799 1.056-6.44 4.531-.068.369.176.545.412.599l2.808.337c.26-.013.436-.296.487-.562.24-1.196 1.224-1.76 2.321-1.76.593 0 1.259.204 1.61.749.403.607.374 1.433.374 2.134v.412c-1.669.192-3.867.308-5.429 1.011-1.803.802-3.07 2.433-3.07 4.83 0 3.072 1.882 4.606 4.306 4.606 2.046 0 3.177-.481 4.755-2.134.524.779.691 1.132 1.647 1.947.213.115.483.104.674-.075v.037c.575-.524 1.621-1.479 2.209-1.984.235-.197.183-.519 0-.786-.526-.745-1.086-1.347-1.086-2.733v-4.606c0-1.951.165-3.749-1.236-5.092-1.102-1.087-2.942-1.461-4.342-1.461zm37.743 0c-2.741 0-5.798 1.056-6.44 4.531-.068.369.175.545.412.599l2.808.337c.26-.013.438-.296.487-.562.241-1.196 1.224-1.76 2.321-1.76.594 0 1.259.204 1.61.749.401.607.337 1.433.337 2.134v.412c-1.669.192-3.829.308-5.392 1.011-1.804.802-3.07 2.433-3.07 4.83 0 3.072 1.883 4.606 4.306 4.606 2.044 0 3.175-.481 4.755-2.134.521.779.691 1.132 1.647 1.947.214.115.483.104.674-.075v.037c.576-.524 1.621-1.479 2.209-1.984.235-.197.181-.519 0-.786-.526-.745-1.086-1.347-1.086-2.733v-4.606c0-1.951.126-3.749-1.273-5.092-1.104-1.087-2.905-1.461-4.305-1.461zm-21.23.15c-1.771 0-3.084.894-3.782 2.808h-.037v-1.984c-.018-.277-.244-.51-.524-.524h-2.696c-.306 0-.562.259-.562.562v15.164c.023.27.25.505.524.524h2.883c.308 0 .56-.256.562-.562v-8.05c0-1.755-.085-4.156 1.984-4.156 2.043 0 1.76 2.467 1.76 4.156v8.05c0 .286.234.542.524.562h2.883c.307 0 .562-.256.562-.562v-8.05c0-.861-.035-2.116.262-2.883.296-.767 1.023-1.273 1.722-1.273.834 0 1.47.291 1.685 1.311.134.606.075 2.208.075 2.846v8.05c0 .286.234.542.524.562h2.883c.307 0 .562-.256.562-.562v-9.585c0-1.628.164-3.477-.749-4.755-.806-1.148-2.125-1.647-3.332-1.647-1.694 0-3.27.894-3.969 2.808-.806-1.915-1.943-2.81-3.744-2.81zm49.013 0c-4.166 0-6.478 3.663-6.478 8.387 0 4.692 2.286 8.462 6.478 8.462 4.032 0 6.59-3.684 6.59-8.312 0-4.786-2.317-8.537-6.59-8.537zm16.437 0c-1.99 0-3.128.995-3.932 3.07h-.037v-2.321c-.052-.235-.273-.397-.524-.412h-2.658c-.29 0-.535.21-.562.487v15.164c0 .286.235.542.524.562h2.846c.307 0 .557-.255.562-.562v-8.163c0-1.023.087-1.957.487-2.883.322-.734.948-1.198 1.647-1.198 1.987 0 1.797 2.421 1.797 4.081v8.237c.029.258.261.47.524.487h2.883c.284 0 .528-.216.562-.487v-9.548c0-1.468.004-3.506-.749-4.718-.806-1.308-2.083-1.796-3.37-1.796zm-34.597.262c-.292 0-.523.232-.524.562v2.172c.001.325.225.559.524.562h4.943l-5.654 8.35c-.345.538-.374 1.148-.374 1.498v2.209c0 .318.346.664.674.487 3.222-1.759 7.083-1.602 9.997-.037.353.193.711-.169.711-.487v-2.321c-.029-.31-.15-.609-.524-.824-1.653-.951-3.573-1.243-5.392-1.198l4.905-7.189c.454-.646.708-1.035.711-1.348v-1.872c0-.322-.22-.562-.524-.562h-9.473v-.002zm18.16 2.846c.913 0 1.586.407 1.91 1.46.375 1.214.412 2.729.412 4.006 0 1.946-.09 5.167-2.321 5.167-2.256 0-2.247-3.988-2.247-5.841-.001-1.848.124-4.792 2.246-4.792zm-63.99 5.541v.637c0 1.151.041 2.121-.524 3.145-.458.833-1.177 1.348-1.984 1.348-1.102 0-1.76-.894-1.76-2.172-.001-2.517 2.186-2.958 4.268-2.958zm37.742 0v.637c0 1.151.041 2.121-.524 3.145-.458.833-1.173 1.348-1.984 1.348-1.104 0-1.76-.894-1.76-2.172 0-2.517 2.185-2.958 4.268-2.958z" fill="#201C1D" sketch:type="MSShapeGroup"/><path d="M133.193 54.185v2.172h1.46v-2.172h-1.46zm-42.348.374v15.464h1.348v-1.385c.288.549.614.959 1.011 1.236.395.277.85.412 1.348.412.99 0 1.844-.506 2.584-1.535.739-1.029 1.123-2.522 1.123-4.418 0-1.243-.16-2.273-.487-3.145-.327-.871-.764-1.518-1.311-1.947-.546-.428-1.167-.674-1.835-.674-.477 0-.922.125-1.311.374-.389.249-.704.655-1.011 1.161v-5.542h-1.459v-.001zm13.854 3.632c-1.016 0-1.822.301-2.396.899-.574.597-.861 1.367-.861 2.321 0 .555.125 1.024.337 1.46.212.436.516.788.899 1.048s1.148.601 2.284.974c.786.253 1.255.468 1.46.637.297.246.449.568.449 1.011 0 .513-.178.94-.524 1.273-.346.334-.828.487-1.46.487-.633 0-1.153-.177-1.535-.562-.382-.385-.588-.969-.674-1.76l-1.46.3c.331 2.402 1.529 3.596 3.595 3.595 1.102 0 1.946-.312 2.584-.974.638-.662.974-1.551.974-2.621 0-.578-.102-1.078-.3-1.498-.198-.418-.469-.73-.824-.974-.356-.242-1.149-.565-2.359-.974-.879-.308-1.394-.534-1.573-.674-.298-.237-.449-.56-.449-.974 0-.421.139-.779.449-1.048.31-.268.789-.412 1.423-.412 1.117 0 1.74.613 1.872 1.835l1.423-.225c-.098-.773-.267-1.383-.524-1.797-.258-.415-.638-.764-1.123-1.011-.488-.245-1.046-.336-1.687-.336zm8.949 0c-1.169 0-2.159.483-2.921 1.498-.763 1.015-1.123 2.487-1.123 4.418 0 1.861.367 3.319 1.123 4.306.756.986 1.736 1.46 2.958 1.46.971 0 1.777-.291 2.434-.899.658-.607 1.135-1.501 1.385-2.696l-1.498-.262c-.43 1.531-1.224 2.282-2.321 2.284-.7 0-1.271-.297-1.76-.936-.489-.64-.765-1.589-.824-2.846h6.44v-.524c0-1.89-.377-3.308-1.123-4.306-.747-.997-1.653-1.497-2.77-1.497zm8.874 0c-.35 0-.656.118-.936.374s-.599.785-.936 1.573v-1.722h-1.311v11.196h1.46v-5.842c0-.815.076-1.598.262-2.321.105-.415.304-.742.562-.974.258-.231.551-.337.861-.337.344 0 .685.137 1.048.412l.487-1.76c-.508-.407-1.008-.599-1.497-.599zm17.898 0c-1.156 0-2.109.487-2.846 1.46-.736.973-1.123 2.435-1.123 4.381 0 1.931.394 3.394 1.123 4.381.731.986 1.642 1.46 2.771 1.46.931 0 1.733-.346 2.396-1.048.665-.702 1.07-1.736 1.236-3.07l-1.423-.225c-.105.955-.355 1.642-.749 2.097-.394.453-.868.674-1.423.674-.707 0-1.308-.329-1.76-1.011-.452-.681-.674-1.771-.674-3.295 0-1.476.239-2.542.711-3.22.472-.678 1.077-1.048 1.797-1.048.482 0 .893.188 1.236.562.345.374.574.968.711 1.722l1.423-.3c-.171-1.18-.55-2.069-1.161-2.658-.611-.592-1.354-.862-2.245-.862zm8.35 0c-1.169 0-2.157.483-2.921 1.498-.763 1.015-1.123 2.487-1.123 4.418 0 1.861.367 3.319 1.123 4.306.757.986 1.736 1.46 2.958 1.46.969 0 1.776-.291 2.434-.899.657-.607 1.134-1.501 1.385-2.696l-1.498-.262c-.43 1.531-1.189 2.282-2.284 2.284-.7 0-1.308-.297-1.797-.936-.489-.64-.764-1.589-.824-2.846h6.44v-.524c0-1.89-.377-3.308-1.123-4.306-.745-.997-1.654-1.497-2.77-1.497zm8.649 0c-1.017 0-1.822.301-2.396.899-.575.597-.861 1.367-.861 2.321 0 .555.087 1.024.3 1.46.211.436.515.788.899 1.048.382.26 1.148.601 2.284.974.785.253 1.293.468 1.498.637.297.246.449.568.449 1.011 0 .513-.178.94-.524 1.273-.345.334-.829.487-1.46.487-.634 0-1.153-.177-1.535-.562-.381-.385-.626-.969-.711-1.76l-1.46.3c.329 2.402 1.526 3.596 3.595 3.595 1.104 0 1.984-.312 2.621-.974.637-.661.974-1.551.974-2.621 0-.578-.102-1.08-.3-1.498-.198-.418-.505-.73-.861-.974-.355-.242-1.111-.565-2.321-.974-.879-.308-1.433-.534-1.61-.674-.298-.237-.449-.56-.449-.974 0-.421.176-.78.487-1.048.31-.268.79-.412 1.423-.412 1.115 0 1.74.613 1.872 1.835l1.423-.225c-.099-.773-.265-1.383-.524-1.797-.258-.415-.638-.764-1.123-1.011-.49-.245-1.05-.336-1.69-.336zm-33.399.225l3.258 11.196h1.385l3.258-11.196h-1.498l-1.91 6.852c-.231.829-.436 1.544-.562 2.134-.159-.744-.312-1.526-.524-2.284l-1.872-6.702h-1.535zm9.173 0v11.196h1.46v-11.196h-1.46zm-48.002.149c-1.159 0-2.091.52-2.846 1.535-.756 1.015-1.161 2.487-1.161 4.418 0 1.861.374 3.282 1.123 4.269.749.986 1.748 1.498 2.958 1.498.961 0 1.746-.329 2.396-.936.649-.607 1.099-1.501 1.348-2.696l-1.46-.225c-.425 1.531-1.198 2.282-2.284 2.284-.694 0-1.276-.297-1.76-.936-.484-.64-.765-1.589-.824-2.846h6.365l.037-.524c0-1.89-.384-3.345-1.123-4.343-.737-.998-1.664-1.498-2.769-1.498zm-16.437.262l2.621 11.196h1.535l1.722-8.612.3 1.91 1.385 6.702h1.498l2.658-11.196h-1.385l-1.46 6.478-.487 2.172-.449-2.172-1.273-6.478h-1.498l-1.348 6.553-.449 2.321-.524-2.396-1.348-6.478h-1.498zm93.196.113v.524h1.423v3.744h.562v-3.744h1.423v-.524h-3.408zm3.969 0v4.269h.524v-3.632l1.236 3.632h.524l1.236-3.557v3.557h.561v-4.269h-.786l-1.011 2.995-.225.674-.225-.637-1.011-3.033h-.823v.001zm-52.308.786c.727 0 1.328.352 1.797 1.048.324.478.533 1.202.599 2.172h-4.83c.046-.984.324-1.742.786-2.321.463-.58.995-.899 1.648-.899zm35.121 0c.725 0 1.328.352 1.797 1.048.322.478.533 1.202.599 2.172h-4.83c.046-.984.323-1.742.786-2.321.462-.58.994-.899 1.648-.899zm-63.541.412c.719 0 1.296.352 1.76 1.048.32.478.533 1.202.599 2.172h-4.755c.046-.984.289-1.779.749-2.359.457-.58.999-.861 1.647-.861zm9.286 0c.649 0 1.202.361 1.647 1.048.446.689.637 1.751.637 3.22 0 1.433-.211 2.5-.674 3.22-.463.72-1.013 1.086-1.61 1.086-.439 0-.838-.147-1.198-.449-.362-.302-.627-.735-.824-1.311-.197-.576-.3-1.462-.3-2.621 0-1.364.243-2.388.711-3.108.47-.719 1.014-1.085 1.611-1.085z" fill="#000" sketch:type="MSShapeGroup"/><path d="M47.767 48.269l-5.579 2.396 5.167 2.209 5.991-2.209-5.579-2.396zm-8.387 2.995l-.187 10.784 8.163 3.595v-11.196l-7.976-3.183zm16.774 0l-7.376 2.808v10.559l7.376-2.995v-10.372z" fill="#F7A80D" sketch:type="MSShapeGroup"/><path d="M64.953 17.715l-5.616 2.396 5.205 2.209 5.991-2.209-5.58-2.396zm-7.788 3.183v10.784l6.964 2.022.225-9.81-7.189-2.996zm15.576.599l-6.59 2.808v10.596l6.59-2.995v-10.409z" fill="#F7A80D" sketch:type="MSShapeGroup"/><path d="M38.574 32.892l-5.579 2.396 5.167 2.209 5.991-2.209-5.579-2.396zm-8.387 2.996l-.187 10.783 8.163 3.595v-11.196l-7.976-3.182zm16.775 0l-7.376 2.808v10.559l7.376-2.995v-10.372z" fill="#F7A80D" sketch:type="MSShapeGroup"/><path d="M56.547 32.494l-5.579 2.396 5.167 2.209 5.991-2.209-5.579-2.396zm-8.387 2.995l-.187 10.784 8.163 3.595v-11.196l-7.976-3.183zm16.774 0l-7.376 2.808v10.559l7.376-2.995v-10.372z" fill="#F7A80D" sketch:type="MSShapeGroup"/><path d="M82.508 17.715l-5.579 2.396 5.167 2.209 5.991-2.209-5.579-2.396zm-8.387 2.995l-.187 10.784 8.163 3.595v-11.196l-7.976-3.183zm16.774 0l-7.376 2.808v10.559l7.376-2.995v-10.372z" fill="#F7A80D" sketch:type="MSShapeGroup"/></g></svg>