<svg width="200" height="90" viewBox="0 0 200 90" xmlns="http://www.w3.org/2000/svg" xmlns:sketch="http://www.bohemiancoding.com/sketch/ns"><title>Google Analytics</title><g sketch:type="MSLayerGroup" fill="none"><g fill="#333" sketch:type="MSShapeGroup"><path d="M96.563 44.233c.514.438 1.586 1.361 1.586 3.118 0 1.708-.938 2.519-1.877 3.279-.291.299-.625.623-.625 1.132 0 .508.335.785.579.994l.806.645c.984.855 1.877 1.641 1.877 3.235 0 2.171-2.034 4.364-5.879 4.364-3.242 0-4.806-1.593-4.806-3.303 0-.832.401-2.009 1.721-2.819 1.385-.877 3.264-.992 4.27-1.063-.313-.416-.671-.853-.671-1.569 0-.392.113-.623.224-.901-.246.023-.491.047-.716.047-2.368 0-3.71-1.824-3.71-3.625 0-1.063.47-2.242 1.43-3.096 1.274-1.086 2.794-1.271 4.002-1.271h4.604l-1.43.832h-1.386v.001zm-1.199 10.391c-.176-.023-.287-.023-.508-.023-.2 0-1.4.048-2.332.374-.488.185-1.909.741-1.909 2.392 0 1.648 1.533 2.834 3.908 2.834 2.13 0 3.263-1.071 3.263-2.509-.001-1.188-.733-1.812-2.421-3.067zm.28-4.653c.505-.517.548-1.234.548-1.638 0-1.618-.943-4.132-2.762-4.132-.57 0-1.184.291-1.536.741-.372.471-.482 1.078-.482 1.662 0 1.504.856 3.998 2.741 3.998.548-.001 1.14-.269 1.491-.629zM81.74 54.6c-3.561 0-5.465-2.899-5.465-5.519 0-3.063 2.397-5.681 5.802-5.681 3.291 0 5.352 2.689 5.352 5.518 0 2.757-2.037 5.682-5.688 5.682m3.381-1.971c.571-.736.715-1.653.715-2.55 0-2.02-.998-5.879-3.942-5.879-.784 0-1.566.299-2.135.782-.926.803-1.094 1.814-1.094 2.802 0 2.273 1.164 6.016 4.037 6.016.926.001 1.874-.437 2.419-1.171M68.993 54.6c-3.562 0-5.466-2.899-5.466-5.519 0-3.063 2.397-5.681 5.801-5.681 3.292 0 5.353 2.689 5.353 5.518.001 2.757-2.038 5.682-5.688 5.682m3.382-1.971c.57-.736.713-1.653.713-2.55 0-2.02-.997-5.879-3.941-5.879-.783 0-1.566.299-2.137.782-.927.803-1.092 1.814-1.092 2.802 0 2.273 1.163 6.016 4.037 6.016.925.001 1.875-.437 2.421-1.171" id="Shape"/><path d="M61.857 53.457l-3.292.755c-1.336.205-2.532.388-3.796.388-6.354 0-8.769-4.635-8.769-8.264 0-4.429 3.429-8.536 9.298-8.536 1.243 0 2.44.182 3.521.478 1.726.48 2.532 1.073 3.039 1.416l-1.912 1.803-.805.182.575-.914c-.782-.752-2.21-2.144-4.925-2.144-3.636 0-6.375 2.74-6.375 6.735 0 4.29 3.13 8.331 8.147 8.331 1.474 0 2.232-.295 2.923-.571v-3.674l-3.475.182 1.841-.981h4.879l-.597.57c-.163.137-.185.184-.232.365-.025.206-.045.869-.045 1.096v2.782zM103.722 52.39c-.8-.068-.966-.204-.966-1.087v-12.82l.013-.145c.096-.792.339-.928 1.09-1.337h-3.461l-1.816.816h1.85v.011l-.001-.008v13.983c0 .452-.097.519-.654 1.198h4.284l.896-.498-1.234-.113" id="Shape"/><path d="M113.999 53.738c-.272.14-.545.305-.816.42-.819.347-1.661.441-2.405.441-.792 0-2.031-.046-3.295-.907-1.757-1.165-2.526-3.167-2.526-4.914 0-3.609 3.122-5.379 5.674-5.379.892 0 1.81.209 2.553.652 1.238.767 1.56 1.769 1.734 2.304l-5.823 2.212-1.909.14c.619 2.957 2.751 4.681 5.105 4.681 1.264 0 2.18-.419 3.023-.815l-1.315 1.164zm-1.83-6.714c.495-.175.755-.325.755-.674 0-1-1.172-2.15-2.58-2.15-1.044 0-2.997.775-2.997 3.475 0 .425.05.875.078 1.325l4.744-1.976z" id="Shape"/><g><path d="M128.359 48.501h-5.39l-1.85 4.499h-1.026l5.337-12.8h.59l5.227 12.8h-1.045l-1.843-4.499zm-5.079-.301h4.78l-1.818-4.825c-.154-.378-.336-.903-.549-1.575-.165.587-.344 1.117-.54 1.593l-1.873 4.807zM139.898 53v-6.107c0-.948-.215-1.637-.642-2.067-.429-.43-1.093-.645-1.993-.645-1.208 0-2.096.284-2.657.853-.561.568-.842 1.491-.842 2.768v5.199h-.923v-9.418h.783l.176 1.292h.055c.658-.983 1.828-1.473 3.509-1.473 2.297 0 3.443 1.147 3.443 3.44v6.16h-.91zM149.728 52.83l-.22-1.467h-.069c-.48.597-.974 1.02-1.481 1.268-.505.246-1.105.369-1.795.369-.937 0-1.667-.233-2.186-.699-.52-.465-.78-1.111-.78-1.934 0-.905.388-1.608 1.164-2.106.774-.5 1.897-.765 3.366-.794l1.816-.051v-.614c0-.881-.185-1.546-.552-1.995-.371-.45-.964-.674-1.783-.674-.883 0-1.8.239-2.747.717l-.326-.733c1.049-.478 2.083-.717 3.108-.717 1.047 0 1.832.264 2.349.794.517.529.775 1.354.775 2.473v6.165l-.64-.002zm-3.564-.63c1.056 0 1.887-.275 2.495-.824.61-.549.912-1.312.912-2.29v-.886l-1.725.066c-1.386.061-2.375.257-2.966.592-.591.334-.886.856-.886 1.562 0 .563.19 1 .57 1.312.374.313.912.468 1.6.468zM154.351 53h-.797v-13.6h.797v13.6zM155.945 43.4h.95l2.145 5.563c.654 1.707 1.066 2.86 1.239 3.456h.057c.262-.784.686-1.954 1.276-3.511l2.145-5.507h.952l-4.541 11.517c-.367.937-.674 1.569-.923 1.898-.25.328-.54.576-.872.738-.332.166-.735.247-1.207.247-.355 0-.749-.064-1.184-.192v-.783c.36.096.749.144 1.164.144.318 0 .597-.073.84-.218.242-.146.462-.374.658-.68.196-.308.422-.795.68-1.46.259-.665.424-1.099.499-1.3l-3.877-9.911zM168.781 53.031c.575 0 1.075-.048 1.505-.141v.7c-.44.141-.949.21-1.522.21-.88 0-1.531-.224-1.948-.674-.419-.448-.629-1.156-.629-2.12v-6.148h-1.477v-.508l1.477-.395.459-2.155h.468v2.304h2.925v.753h-2.925v6.027c0 .73.134 1.27.403 1.622.269.35.69.526 1.265.526zM171.879 40.996c0-.53.26-.796.779-.796.255 0 .453.069.597.208.144.138.217.334.217.588 0 .249-.073.445-.217.588-.144.145-.343.216-.597.216-.519-.001-.779-.269-.779-.804zm.797 12.804h-.797v-9.6h.797v9.6zM180.421 53c-1.424 0-2.54-.417-3.349-1.251-.807-.834-1.21-1.997-1.21-3.49 0-1.531.419-2.725 1.254-3.578.837-.854 1.986-1.281 3.439-1.281.863 0 1.687.139 2.477.417l-.246.749c-.862-.266-1.61-.4-2.247-.4-1.221 0-2.15.35-2.78 1.051-.628.701-.944 1.709-.944 3.025 0 1.248.316 2.226.944 2.934.63.706 1.512 1.059 2.642 1.059.905 0 1.747-.15 2.522-.451v.783c-.635.289-1.47.434-2.503.434zM191 50.422c0 .829-.345 1.464-1.032 1.91-.687.445-1.662.668-2.925.668-1.35 0-2.421-.191-3.213-.57v-.912c1.016.466 2.086.698 3.213.698.996 0 1.755-.153 2.271-.455.515-.303.774-.708.774-1.213 0-.466-.206-.856-.616-1.175-.412-.317-1.089-.63-2.03-.937-1.009-.334-1.717-.622-2.126-.864-.409-.241-.718-.513-.925-.816-.208-.304-.311-.674-.311-1.11 0-.692.318-1.24.952-1.643.632-.402 1.522-.603 2.66-.603 1.091 0 2.124.187 3.103.562l-.345.766c-.989-.375-1.911-.562-2.758-.562-.823 0-1.476.125-1.959.375-.481.249-.724.596-.724 1.038 0 .481.187.868.561 1.157.374.289 1.108.613 2.197.969.911.301 1.572.571 1.988.813.418.242.727.515.934.821.207.308.311.669.311 1.083z"/></g></g><g sketch:type="MSShapeGroup"><path d="M36.595 31h-24.19c-1.328 0-2.405 1.093-2.405 2.441v17.153l2.963-2.829c-.19-.405-.296-.858-.296-1.336 0-1.72 1.374-3.115 3.068-3.115 1.695 0 3.068 1.394 3.068 3.115 0 .203-.02.401-.056.594l3.693 2.064c.55-.526 1.289-.849 2.104-.849.283 0 .557.04.817.113l5.504-8.507c-.425-.534-.679-1.214-.679-1.954 0-1.72 1.374-3.115 3.068-3.115s3.068 1.394 3.068 3.115c0 .272-.035.536-.099.787l2.777 1.795v-7.031c0-1.348-1.077-2.441-2.405-2.441" fill="#F89E06"/><path d="M35.212 40.405c-.531.453-1.214.725-1.959.725-.283 0-.557-.04-.817-.114l-5.504 8.603c.425.54.68 1.227.68 1.976 0 1.74-1.374 3.15-3.068 3.15s-3.068-1.41-3.068-3.15c0-.205.02-.406.056-.6l-3.693-2.087c-.549.532-1.29.859-2.104.859-.538 0-1.044-.143-1.483-.392l-4.252 4.105v4.835c0 1.363 1.077 2.469 2.405 2.469h24.153c1.349 0 2.442-1.122 2.442-2.507v-15.396l-3.788-2.476" fill="#F15D1E"/></g></g></svg>