<svg width="200" height="90" viewBox="0 0 200 90" xmlns="http://www.w3.org/2000/svg" xmlns:sketch="http://www.bohemiancoding.com/sketch/ns"><title>Mailchimp</title><g sketch:type="MSLayerGroup" fill="#000"><g id="Shape" sketch:type="MSShapeGroup"><path d="M178.047 57.836l.057.001c3.444 0 5.868-2.404 5.895-5.845.013-1.704-.475-3.263-1.376-4.39-.952-1.193-2.284-1.829-3.854-1.841h-.032c-2.118 0-4.085 1.619-6.013 4.951l-.153.266-.098-.29c-.488-1.428-.92-2.618-1.179-3.329-.181-.496-.261-.719-.281-.791-.092-.36-.399-.584-.799-.584-.247 0-.508.085-.756.244-.246.158-.383.35-.432.606l-.012.039c-1.929 6.063-3.521 9.008-4.869 9.008-.196-.001-.349-.066-.463-.195-.353-.393-.266-1.328-.146-2.622.088-.951.188-2.027.147-3.17-.08-2.196-1.273-3.515-3.19-3.53-2.436-.001-4.016 2.614-4.744 4.172l-.218.465-.047-.512c-.182-1.929-.824-4.232-2.852-4.248-2.366 0-4.169 2.798-5.269 5.145l-.294.63.029-.695c.131-3.131.238-4.98.319-5.492.08-.514.038-.86-.129-1.057-.158-.185-.456-.254-.895-.225-.757.048-1.145.513-1.729 2.07-.958 2.558-3.394 8.506-5.34 8.506-.387-.002-.692-.135-.915-.394-.816-.942-.49-3.49-.038-7.015l.034-.267c.214-1.67-.151-2.025-1.05-2.193l-.274-.027c-.719 0-1.055.693-1.726 2.62-1.194 3.428-2.731 7.035-4.526 7.035l-.197-.016c-.952-.163-.931-1.585-.905-3.388.013-.975.03-2.08-.119-3.077-.267-1.79-1.314-2.908-2.732-2.919-2.829 0-4.735 3.649-5.623 5.824l-.201.492-.067-.528c-.119-.943-.276-2.439-.344-4.206l-.002-.053.032-.042c5.293-6.712 7.668-11.557 7.699-15.708.021-2.652-1.194-4.244-3.247-4.26-1.501 0-5.073 1.26-6.313 12.935-.231 2.164-.357 4.384-.376 6.597v.044l-.024.036c-2.422 3.531-7.59 9.606-12.65 9.606-4.572 0-8.22-3.727-8.22-10.305 0-8.818 6.195-14.233 10.858-14.233h.039c1.013.009 1.882.293 2.512.824.655.552.998 1.325.991 2.237-.01 1.218-.402 1.843-.783 2.447l-.284.474c-.09.165-.173.405-.052.611.123.211.435.343.817.345 1.11 0 2.788-1.619 2.806-4.057.019-2.553-2.115-5.182-5.922-5.182-5.761 0-13.522 6.378-13.522 16.712 0 7.311 4.549 12.364 10.713 12.364 4.373 0 8.7-3.155 12.531-8.425l.235-.32.017.397c.081 1.929.22 3.449.322 4.559.066.714.113 1.229.111 1.514-.005.623.096 1.056.309 1.322s.552.392 1.065.396c.861 0 1.033-.592 1.374-2.049l.098-.416c.423-1.768 1.988-7.534 4.34-7.534.384.004.681.118.891.343.519.555.463 1.695.396 3.014-.041.823-.084 1.674-.001 2.502.221 2.237 1.18 3.33 2.931 3.344 1.798.001 3.674-1.95 4.664-3.763l.187-.342.073.383c.182.97.999 4.155 3.558 4.155 2.32 0 4.307-2.46 6.488-7.523l.286-.661-.017.721c-.046 1.918-.15 4.261-.15 6.073-.001 1.401.14 1.935.783 1.935l.146.006c.616 0 1.035-.371 1.244-1.104 1.64-5.761 3.059-8.444 4.463-8.444 1.376.011 1.505 2.545 1.615 7.023l.007.314c.033 1.567.089 2.259 1.055 2.266.733 0 .915-.581 1.294-2.008l.244-.893c1.325-4.63 2.423-6.52 3.791-6.52 1.171.009 1.235 1.225 1.257 1.624.045.855-.043 1.752-.126 2.616-.078.804-.159 1.635-.129 2.408.072 1.812 1.056 2.816 2.772 2.829 2.227 0 4.237-2.624 5.997-7.798l.122-.361.14.354c.32.813.736 1.914 1.121 3.228l.015.05-.021.048c-1.704 3.813-2.907 8.062-2.924 10.332-.023 2.989 1.319 4.931 3.42 4.949h.036c1.143 0 3.806-.462 3.858-4.74.021-1.753-.39-4.232-1.221-7.369l-.096-.359.306.206c1.059.71 2.255 1.09 3.458 1.099zm-57.023-14.353c.05-1.116.146-2.205.28-3.232.876-6.625 2.705-11.251 4.449-11.251h.008c.831.006 1.247.626 1.238 1.844-.023 2.991-1.944 7.274-5.705 12.729l-.295.427.025-.517zm51.515 22.999c-.246.344-.588.518-1.016.518-.492-.004-.862-.184-1.114-.537-.705-.989-.506-3.314.643-7.534.137-.504.286-1.011.444-1.508l.134-.421.118.426c1.339 4.871 1.605 7.918.791 9.056zm1.536-12.817l-.025-.049-.051-.168.024-.05c1.581-3.432 3.391-5.398 4.967-5.398h.017c1.78.014 3.01 1.702 2.992 4.102-.012 1.602-.682 2.524-1.242 3.016-.638.562-1.49.882-2.334.882-2.082-.016-3.511-1.278-4.348-2.335zM179 48.001v-.001.001zM68.955 57.736c2.501-.209 4.484-3.751 5.221-5.264l.189-.391.072.431c.353 2.129 1.465 5.706 4.943 5.733h.029c1.504 0 3.211-.958 4.936-2.77l.126-.133.092.161c1.162 2.023 2.719 3.097 4.377 3.009 2.441-.133 3.923-1.934 4.053-3.186.033-.319-.047-.619-.222-.822-.22-.255-.538-.284-.772-.051l-.112.11c-.568.569-1.628 1.627-2.781 1.69-1.413.072-2.457-.808-3.133-2.623l-.028-.076.047-.064c3.884-5.292 6.611-13.366 6.341-18.782-.124-2.507-.824-5.495-3.452-5.495l-.195.005c-1.006.054-1.923.554-2.721 1.484-2.439 2.842-3.714 9.836-3.252 17.819.096 1.659.373 3.209.822 4.606l.025.078-.051.063c-1.441 1.755-2.863 2.721-4.004 2.721-2.746 0-2.653-4.795-2.436-8.772.047-.857.117-1.403-.127-1.714-.174-.223-.465-.333-.89-.335h-.05c-.977 0-1.181.21-1.681 1.719-1.04 3.138-3.093 8.404-5.158 8.404-.572-.005-1.01-.209-1.309-.606-1.001-1.331-.242-4.654.37-7.324.11-.48.215-.941.306-1.367.134-.633.092-1.095-.121-1.374-.215-.278-.645-.392-1.213-.345-.885.073-1.451.459-1.724 2.211l-.055.364-.205-.259c-.386-.594-1.14-1.301-2.537-1.301l-.38.016c-1.492.128-3.191 1.21-4.434 2.826-1.452 1.886-2.145 4.275-1.952 6.723l.046.378.01.068-.045.052c-.868.985-1.753 1.486-2.63 1.486-1.352-.011-2.129-1.058-2.129-2.803 0-2.937 1.911-11.791 1.911-14.996 0-3.411-1.459-5.268-3.994-5.288h-.039c-3.7 0-6.584 4.373-9.343 13.37-.252.824-.528 1.775-.764 2.598l-.387 1.353.115-1.406c.256-3.134.432-6.184.523-9.064.137-4.348-.427-7.147-1.726-8.554-.7-.76-1.627-1.134-2.834-1.143h-.032c-4.528 0-6.697 7.954-8.276 13.566-.477 1.694-1.417 5.516-2.044 8.128l.371-.63c.278-3.29 1.085-11.529 1.033-15.999-.057-4.795-1.59-6.946-4.972-6.972h-.041c-1.806 0-3.059.936-3.792 1.719-1.177 1.259-1.911 3.099-1.869 4.688.025.966.594 1.826 1.026 1.826.28 0 .437-.391.504-.623 1.048-3.602 2.401-5.353 4.139-5.353.721.005 1.258.226 1.658.676 1.357 1.517 1.111 5.612.663 13.049-.144 2.397-.308 5.111-.445 8.201-.024.53-.056 1.042-.086 1.529-.132 2.144-.237 3.84.545 3.966 1.016.166 1.678-.265 2.016-1.312.503-1.555 1.628-5.803 3.807-13.567 2.09-7.45 3.669-10.161 5.689-10.161 2.334 0 2.508 4.175 2.081 12.983-.091 1.867-.214 3.982-.307 6.285l-.042.939c-.09 1.905-.16 3.41.362 3.986.163.18.385.268.679.271 1.012 0 1.316-.924 1.82-2.455l.289-.861c3.467-9.961 6.032-18.605 9.472-18.605 1.032 0 1.835.874 1.835 2.575 0 3.931-1.845 11.526-1.845 15.376 0 1.379.381 2.618 1.101 3.488.739.894 1.773 1.37 2.991 1.381h.027c1.151 0 2.351-.583 3.566-1.732l.114-.107.091.129c.8 1.12 2.091 1.722 3.486 1.611 2.139-.173 3.933-2.157 4.6-4.027l.13-.365.13.365c.494 1.383 1.567 3.056 3.86 2.862zm19.791-25.734l.036-.001c.244 0 .459.128.637.379.849 1.195.861 5.557-.598 10.518-.835 2.836-1.956 5.515-3.243 7.748l-.205.355-.052-.411c-.152-1.2-.226-2.45-.279-3.514-.372-7.5 1.806-14.972 3.704-15.074zm-23.756 16.865c-.771 3.13-2.249 6.909-4.914 7.125l-.216.009c-1.105 0-1.725-.731-1.842-2.171-.146-1.803.624-3.915 1.961-5.381.852-.934 1.812-1.447 2.705-1.447h.017c1.126.009 1.916.922 2.28 1.774l.019.044-.01.048zM78.015 38c-1.11 0-2.008.855-2.015 1.907-.008 1.06.882 1.928 1.985 1.936l.016.157v-.157c1.095 0 1.991-.855 1.999-1.907.008-1.058-.882-1.928-1.985-1.936zM138.014 38c-1.11 0-2.006.855-2.014 1.907-.008 1.06.882 1.928 1.984 1.936l.016.157v-.157c1.094 0 1.991-.855 2-1.907.007-1.058-.883-1.928-1.986-1.936z"/></g><g sketch:type="MSShapeGroup"><path d="M184.999 55c-.551 0-.999.449-.999 1.001 0 .551.449.999.999.999.551 0 1.001-.448 1.001-.999 0-.551-.449-1.001-1.001-1.001zm.001 2c-.553 0-1-.446-1-1 0-.553.447-1 1-1 .553 0 1 .447 1 1 0 .553-.447 1-1 1zM185.779 56.277c0-.18-.098-.277-.35-.277h-.429v1h.141v-.438h.2l.333.438h.158l-.333-.438c.15-.022.28-.1.28-.285zm-.6.099h-.179v-.376h.249c.12 0 .25.041.25.184-.001.184-.168.192-.32.192z"/></g></g></svg>