<svg width="200" height="90" viewBox="0 0 200 90" xmlns="http://www.w3.org/2000/svg" xmlns:sketch="http://www.bohemiancoding.com/sketch/ns"><title>Marketo</title><g sketch:type="MSLayerGroup" fill="none"><path d="M158.582 14.048h-4.016c-.976 0-1.959.776-2.179 1.724l-5.178 22.099c2.762.842 5.054 1.778 6.935 2.703l5.811-24.802c.221-.948-.397-1.724-1.373-1.724zm-10.927 6.911h-4.014c-.978 0-1.96.776-2.181 1.724l-3.09 13.187c2.672.423 5.07.947 7.211 1.53l3.448-14.718c.222-.946-.396-1.723-1.374-1.723zm-20.481 8.535h-4.016c-.976 0-1.959.776-2.179 1.724l-.856 3.652c.625-.046 1.268-.08 1.956-.088 1.961-.021 3.831.006 5.616.075l.853-3.639c.219-.948-.398-1.724-1.374-1.724zm10.501-4.585h-4.016c-.976 0-1.959.775-2.181 1.724l-1.947 8.313c2.664.15 5.128.394 7.402.711l2.114-9.024c.223-.948-.395-1.724-1.372-1.724z" id="Shape" fill="#8D70C9" sketch:type="MSShapeGroup"/><g fill="#333E48" sketch:type="MSShapeGroup"><path d="M44.593 43.914c.238-1.034 1.302-1.879 2.362-1.879h3.983c1.06 0 1.898.867 1.861 1.928l-.097 2.755c-.038 1.06-.093 2.795-.123 3.855 0 0-.044 1.56-.044 2.224-.1 1.994-.199 3.621-.332 5.779.465-1.096 1.03-2.458 1.661-3.919.499-1.196 1.196-2.857 1.529-3.621l3.205-7.239c.43-.97 1.649-1.763 2.709-1.763h3.949c1.06 0 1.733.845 1.495 1.879l-4.547 19.693c-.238 1.034-1.302 1.879-2.362 1.879h-1.424c-1.06 0-1.715-.841-1.454-1.869l3.469-13.667c.261-1.029.119-1.078-.314-.11l-6.228 13.886c-.434.968-1.657 1.759-2.717 1.759h-.893c-1.06 0-1.92-.867-1.91-1.929l.13-13.549c.01-1.06-.159-1.079-.375-.04l-2.835 13.629c-.216 1.038-1.261 1.887-2.321 1.887h-1.424c-1.06 0-1.733-.845-1.495-1.879l4.542-19.689zM78.576 63.46c-.033.266-.1.531-.1.797 0 .797.233.963.498 1.229h-4.117c-1.06 0-1.824-.418-1.696-.93.128-.511-.424-.363-1.226.331 0 0-1.232 1.064-3.324 1.064-.366 0-3.521 0-3.521-3.223 0-1.096.698-4.218 1.794-5.48 1.096-1.263 2.691-1.728 8.902-3.521.166-.698.399-1.827.399-2.093 0-.93-.864-.996-1.428-.996-1.495 0-1.761.796-2.259 2.591h-3.121c-1.06 0-1.692-.836-1.404-1.856 0 0 .639-2.264 2.266-3.093 1.23-.631 2.923-.93 4.784-.93 3.056 0 6.212.764 6.212 3.886v.664c-.164.73-.494 2.175-.732 3.208l-1.927 8.352zm-3.554-6.312c-1.196.366-2.724.831-3.355 1.329-.863.698-1.096 2.591-1.096 2.924 0 .597.266 1.096 1.163 1.096h.93c.694-.585 1.478-1.904 1.741-2.932l.617-2.417zM89.603 51.236c1.462-2.791 2.558-3.422 5.348-3.853l-.829 3.087c-.275 1.025-.829 1.847-1.231 1.83h-.366c-2.923 0-3.455 1.262-4.219 4.518l-1.561 6.79c-.237 1.034-1.3 1.879-2.361 1.879h-1.391c-1.06 0-1.733-.845-1.494-1.879l3.249-14.047c.239-1.034 1.303-1.879 2.363-1.879h1.391c1.06 0 1.731.845 1.489 1.878l-.388 1.676zM100.895 42.035c1.061 0 1.733.845 1.494 1.879l-1.988 8.599c-.238 1.033.117 1.209.79.389l3.065-3.731c.674-.819 2.093-1.49 3.154-1.49h2.088c1.06 0 1.348.646.637 1.434l-4.327 4.807c-.71.789-1.04 2.264-.733 3.28l1.941 6.438c.306 1.016-.311 1.846-1.371 1.846h-1.591c-1.061 0-2.151-.839-2.422-1.864l-1.54-5.837c-.271-1.025-.686-1.019-.924.014l-1.33 5.808c-.237 1.034-1.299 1.879-2.359 1.879h-1.424c-1.06 0-1.733-.845-1.495-1.879l4.546-19.693c.238-1.034 1.302-1.879 2.362-1.879h1.427zM124.017 59.74c-.333 1.328-.698 2.889-1.794 4.085-1.063 1.23-2.823 2.126-5.946 2.126-.898 0-3.388-.133-4.949-1.362-.764-.597-1.462-1.528-1.462-3.421 0-2.358 1.694-8.903 2.259-10.232.597-1.428 1.992-3.687 6.842-3.687 2.125 0 6.278.399 6.278 4.351 0 .731-.133 1.495-.298 2.259-.266 1.295-.531 2.491-.864 3.986h-6.574c-1.061 0-2.132.844-2.378 1.876 0 0-.147.616-.147 1.38 0 .167.033.365.1.531.233.399.764.664 1.462.664 1.494 0 1.643-.675 1.643-.675.229-1.036 1.284-1.883 2.345-1.883h3.485v.002h-.002zm-4.285-5.149c.133-.564.465-1.96.465-2.424 0-.333-.066-.664-.266-.897-.332-.399-.929-.466-1.262-.466-1.627 0-1.993 1.893-1.993 1.893-.202 1.042.503 1.893 1.562 1.893l1.494.001zM130.633 43.882c.236-1.034 1.298-1.881 2.357-1.881h1.358c1.061 0 1.73.845 1.489 1.878l-.45 1.924c-.242 1.033.091 1.878.74 1.878s1.008.718.797 1.595c-.211.877-.905 1.595-1.545 1.595-.64 0-1.359.845-1.6 1.878l-1.284 5.51c-.241 1.033-.497 2.207-.57 2.61v.299c0 .929.664.929 2.159.929l-.34 1.507c-.234 1.035-1.292 1.882-2.353 1.882 0 0-5.147 0-5.147-2.657 0-.565.101-.997.299-1.728l2.008-8.356c.247-1.032-.028-1.875-.613-1.875-.584 0-.898-.718-.697-1.595.201-.877.851-1.595 1.444-1.595.594 0 1.273-.846 1.509-1.881l.439-1.917zM151.823 52.099c0 1.861-1.428 7.773-1.927 9.301-.631 1.86-1.661 4.484-6.976 4.484-3.987 0-6.544-1.329-6.544-4.817 0-1.927 1.494-7.806 1.794-8.736.565-1.894 1.694-5.116 6.81-5.116 2.657.001 6.843.434 6.843 4.884zm-5.249.698c.067-.233.101-.465.101-.698.033-.863-.632-1.328-1.428-1.328-1.428 0-1.728 1.229-1.894 2.026l-1.222 5.231c-.242 1.033-.498 2.177-.571 2.542v.365c0 .698.399 1.362 1.428 1.362 1.428 0 1.55-.515 1.55-.515.244-1.032.633-2.724.865-3.759l1.171-5.226zM155.571 47.231c1.242 0 2.25 1.028 2.25 2.28 0 1.283-1.008 2.301-2.26 2.301-1.262 0-2.28-1.018-2.28-2.301 0-1.252 1.017-2.28 2.28-2.28h.01zm-.02.459c-.957 0-1.731.815-1.731 1.832 0 1.029.773 1.833 1.751 1.833.957.01 1.731-.804 1.731-1.833 0-1.017-.773-1.832-1.741-1.832h-.01zm-.387 3.156h-.54v-2.534c.193-.031.417-.072.815-.072.437 0 .713.072.875.204.143.102.224.285.224.54 0 .295-.204.519-.489.59v.02c.224.051.367.254.407.621.051.396.102.549.132.631h-.549c-.062-.092-.102-.316-.153-.651-.041-.275-.204-.387-.489-.387h-.235l.002 1.038zm0-1.467h.244c.326 0 .57-.101.57-.366 0-.204-.152-.366-.519-.366l-.295.01v.722z"/></g></g></svg>