<svg xmlns="http://www.w3.org/2000/svg" viewBox="0 0 210 92" enable-background="new 0 0 210 92"><path d="M34.01 46" stroke="#4169E1" stroke-width="39.613" stroke-linecap="round" stroke-linejoin="round" fill="none"/><path d="M37.448 38.049c.094-.609.182-1.192.193-1.834-1.533-.189-3.293-.146-3.988.847-1.352 1.932 1.288 6.666 2.416 8.687.29.519.499.895.595 1.128.107.259.223.492.343.706.776-1.65.575-3.322.38-4.946-.097-.804-.197-1.636-.171-2.435.027-.821.131-1.498.232-2.153zm-1.292-.376c-.125.131-.388.359-.747.409l-.14.01c-.529 0-.986-.413-1.024-.681-.043-.323.484-.569 1.028-.645l.351-.025c.47 0 .782.139.813.364.02.145-.09.368-.281.568zm-5.4-11.987c.969-.201 2.294-.388 3.777-.355 3.758.083 6.731 1.489 8.835 4.179 1.615 2.063-.163 11.45-5.309 19.548l-.156-.196-.065-.082c1.33-2.196 1.07-4.369.838-6.295-.095-.791-.185-1.537-.162-2.239.024-.744.122-1.381.217-1.998.117-.76.236-1.546.203-2.472.025-.097.035-.212.022-.348-.084-.889-1.098-3.548-3.167-5.956-1.131-1.319-2.781-2.792-5.033-3.786zm-14.23 23.624c.148.154.302.299.461.435-.635.68-2.015 2.183-3.484 3.95-1.039 1.25-1.757 1.011-1.993.932-1.538-.513-3.322-3.763-4.895-8.918-1.361-4.46-2.157-8.944-2.22-10.202-.199-3.977.765-6.749 2.865-8.238 3.418-2.424 9.038-.973 11.296-.237l-.098.094c-3.706 3.742-3.618 10.136-3.608 10.527-.001.151.012.364.03.658.064 1.075.182 3.077-.135 5.344-.294 2.105.355 4.167 1.781 5.655zm20.709.81c-.734.212-2.052.701-1.932 3.144-.097 1.225-.786 6.965-1.136 8.994-.462 2.68-1.448 3.678-4.22 4.272-2.875.616-3.892-.851-4.563-2.527-.433-1.083-.645-5.963-.495-11.353l-.028-.206-.08-.381c-.224-.784-.771-1.44-1.427-1.712-.205-.085-.516-.213-.898-.213-.141 0-.28.018-.417.053.123-.505.335-1.075.566-1.692l.097-.26c.109-.293.246-.596.39-.918.781-1.735 1.85-4.111.69-9.479-.435-2.011-1.887-2.992-4.087-2.764-1.32.137-2.527.669-3.129.974l-.36.191c.166-2.023.798-5.803 3.176-8.204 1.496-1.511 3.488-2.257 5.917-2.217 4.781.079 7.846 2.532 9.577 4.576 1.491 1.762 2.298 3.537 2.62 4.494-2.422-.246-4.071.232-4.906 1.426-1.818 2.598.994 7.64 2.345 10.063.248.444.462.828.529.991.44 1.066 1.01 1.778 1.426 2.298l.345.45zm-13.702 2.3c.053.186.113.539-.083.814-.988 1.383-2.347 2.085-4.041 2.085-.557 0-1.148-.077-1.758-.23-.357-.089-.678-.244-.866-.372.157-.074.437-.175.923-.275 2.35-.484 2.712-.825 3.505-1.831.182-.231.388-.492.673-.811.215-.241.408-.363.571-.363.115 0 .244.049.401.114.284.117.563.475.675.869zm20.229-.806l.029-.006c-.36.337-.975.788-1.848 1.193-.751.348-2.006.61-3.199.666-1.318.061-1.989-.147-2.146-.276-.074-1.522.493-1.681 1.093-1.85l.275-.083.182.133c1.058.698 2.948.773 5.614.223zm-22.373-3.57l.096-.258c.124-.334.269-.657.423-.999.746-1.658 1.675-3.721.604-8.672-.207-.956-.704-1.512-1.521-1.699-1.789-.41-4.298.934-4.839 1.414l.022.402c.067 1.12.19 3.206-.145 5.6-.239 1.71.283 3.379 1.433 4.578.904.944 2.093 1.466 3.315 1.469.142-.575.369-1.182.612-1.835zm-1.684-10c-.084-.111-.22-.327-.193-.522.039-.285.383-.457.919-.457l.366.026c.579.081 1.177.355 1.119.766-.043.312-.537.774-1.13.774l-.155-.011c-.343-.046-.689-.262-.926-.576zm27.148 12.729c-.193-.876-.986-1.899-2.586-1.899-.321 0-.669.039-1.064.121-.759.156-1.435.254-2.017.29 2.037-3.493 3.676-7.426 4.627-11.106.88-3.407 1.546-7.957-.279-10.289-2.682-3.428-6.605-5.239-11.344-5.239-2.671 0-4.852.597-5.513.799-1.042-.182-2.163-.283-3.334-.302l-.233-.002c-2.107 0-3.996.479-5.614 1.423-1.474-.494-4.32-1.293-7.284-1.293-3.334 0-5.96.983-7.804 2.922-2.042 2.147-2.972 5.351-2.763 9.524.087 1.75 1.096 6.979 2.539 11.52 2.23 7.016 4.687 10.283 7.731 10.283.953 0 1.858-.334 2.691-.992.731.797 1.792 1.156 2.375 1.302.828.207 1.644.312 2.426.312 1.045 0 2.029-.182 2.93-.543l.016.548.035 1.102c.095 2.372.257 4.217.739 5.518l.096.285c.211.646.529 1.621 1.261 2.507.965 1.167 2.341 1.784 3.978 1.784.523 0 1.083-.063 1.665-.188 1.759-.377 3.757-.953 5.211-3.022 1.363-1.94 2.024-4.843 2.143-9.413l.053-.45.254.021.494.011c1.706 0 3.597-.366 4.818-.933 1.015-.471 4.285-2.194 3.753-4.601zm-4.363 3.205c-1.05.487-2.722.795-4.173.795-.696 0-1.339-.071-1.839-.227-.237 2.176-.74 6.232-1.033 7.932-.548 3.179-1.965 4.621-5.228 5.32-.555.119-1.06.172-1.519.172-3.126 0-4.116-2.474-4.521-3.487-.495-1.237-.667-5.296-.632-9.416-1.122 1.016-2.53 1.547-4.138 1.547-.663 0-1.361-.09-2.073-.269-.206-.052-2.014-.537-1.99-1.692.022-1.058 1.531-1.369 2.099-1.486 1.997-.411 2.126-.575 2.747-1.363l.453-.559-.006-.07c-.896-.024-1.771-.263-2.568-.691-.539.574-2.002 2.153-3.569 4.038-.943 1.134-1.85 1.467-2.59 1.467-.302 0-.575-.055-.813-.135-2.027-.676-3.954-3.963-5.726-9.77-1.347-4.412-2.2-9.018-2.275-10.516-.223-4.451.926-7.602 3.414-9.364 4.454-3.156 11.652-.732 13.222-.144 1.548-1.056 3.417-1.573 5.584-1.539 1.181.019 2.265.171 3.259.419.473-.207 2.91-.945 5.792-.913 4.194.045 7.659 1.663 10.02 4.679 1.593 2.036.542 6.992.015 9.029-1.094 4.236-3.122 8.775-5.587 12.532.373.274 1.51.728 4.681.073 1.068-.22 1.711-.026 1.911.578.389 1.169-1.738 2.513-2.917 3.06z" fill="#333"/><g fill="#333"><path d="M74.041 40.157c0 1.157-.132 2.154-.396 2.991-.264.838-.676 1.529-1.235 2.075-.56.547-1.277.951-2.151 1.214s-1.922.396-3.144.396h-3.109v6.232h-3.234v-19.21h6.454c1.092 0 2.061.114 2.908.34.847.227 1.559.59 2.137 1.09.578.5 1.018 1.15 1.319 1.95.301.801.451 1.775.451 2.922zm-3.372.027c0-.694-.095-1.265-.285-1.714-.19-.448-.465-.802-.826-1.062-.361-.259-.808-.439-1.339-.541-.532-.101-1.141-.153-1.825-.153h-2.387v7.259h2.026c.814 0 1.515-.042 2.103-.125.587-.083 1.069-.257 1.443-.52.375-.264.65-.645.826-1.145.176-.5.264-1.166.264-1.999zM90.031 45.82c0 1.185-.128 2.249-.382 3.192-.255.944-.652 1.749-1.194 2.415-.541.666-1.233 1.178-2.075 1.534-.842.356-1.851.534-3.026.534-1.185 0-2.203-.18-3.054-.541-.851-.361-1.548-.874-2.089-1.541-.541-.666-.939-1.471-1.194-2.415s-.382-2.003-.382-3.178c0-1.194.129-2.267.389-3.22.259-.952.659-1.764 1.201-2.436.541-.671 1.235-1.184 2.082-1.541.847-.356 1.862-.534 3.047-.534 1.175 0 2.183.179 3.026.534.842.357 1.534.87 2.075 1.541.541.671.939 1.483 1.194 2.436.254.953.382 2.026.382 3.22zm-3.095 0c0-1.73-.28-3.016-.84-3.859-.56-.841-1.474-1.263-2.741-1.263-1.268 0-2.191.422-2.769 1.263-.579.842-.867 2.129-.867 3.859 0 1.685.285 2.952.854 3.803.569.852 1.496 1.277 2.783 1.277 1.249 0 2.158-.425 2.727-1.277.568-.851.853-2.119.853-3.803zM104.188 49.026c0 .805-.155 1.49-.465 2.054-.31.565-.727 1.027-1.249 1.388-.523.361-1.127.622-1.811.784-.685.161-1.402.243-2.151.243-.759 0-1.446-.065-2.061-.194-.615-.13-1.164-.307-1.645-.534-.481-.226-.895-.497-1.242-.812-.347-.314-.632-.657-.854-1.027l2.276-1.527c.398.583.888.999 1.471 1.249.583.25 1.24.375 1.971.375.361 0 .712-.028 1.055-.083.342-.056.645-.154.909-.298.264-.143.476-.335.638-.576.162-.24.243-.541.243-.902 0-.278-.06-.514-.18-.708-.121-.194-.31-.368-.569-.52-.259-.153-.595-.296-1.006-.43-.412-.134-.909-.271-1.492-.409-.657-.167-1.286-.356-1.888-.569-.602-.213-1.131-.493-1.589-.84s-.826-.782-1.103-1.305c-.278-.522-.416-1.173-.416-1.95 0-.619.115-1.194.347-1.721.231-.527.58-.985 1.048-1.374.467-.389 1.045-.694 1.735-.916.689-.222 1.492-.333 2.408-.333.638 0 1.237.061 1.797.18.56.121 1.069.291 1.527.514.458.222.863.488 1.214.798.351.311.638.655.861 1.034l-2.276 1.541c-.139-.203-.305-.403-.5-.597-.194-.194-.423-.365-.687-.514-.264-.147-.56-.265-.888-.354-.329-.088-.697-.132-1.103-.132-.777 0-1.398.151-1.86.451-.463.301-.694.738-.694 1.312 0 .269.049.495.146.68.097.186.254.352.472.5.217.148.502.28.854.396.351.116.777.234 1.277.354.842.213 1.603.44 2.283.68.68.241 1.256.537 1.728.888.472.352.835.784 1.09 1.298.252.511.379 1.148.379 1.906zM115.181 53.065c-.416.129-.886.233-1.409.312-.523.078-1.02.118-1.492.118-.796 0-1.474-.095-2.033-.285-.56-.189-1.018-.481-1.374-.874-.357-.393-.618-.895-.784-1.506-.167-.611-.25-1.332-.25-2.165v-7.731h-1.957v-2.429h1.957v-4.053h2.984v4.053h3.525v2.429h-3.525v7.273c0 .519.03.956.09 1.312.06.357.16.645.298.867.139.222.321.384.548.486.226.102.502.153.826.153.324 0 .666-.039 1.027-.118.361-.078.675-.173.944-.285l.625 2.443zM129.754 52.787c0 .972-.13 1.818-.389 2.54s-.666 1.32-1.221 1.797c-.555.476-1.268.833-2.137 1.069-.87.236-1.911.354-3.123.354-1.12 0-2.14-.114-3.06-.34-.921-.227-1.742-.548-2.464-.965l.972-2.415c.629.342 1.321.622 2.075.84.754.217 1.58.326 2.478.326.703 0 1.3-.061 1.79-.18.49-.121.89-.308 1.201-.562.31-.255.537-.586.68-.992.143-.408.215-.898.215-1.471v-1.458c-.546.5-1.185.914-1.915 1.242-.731.329-1.541.493-2.429.493-.972 0-1.811-.182-2.519-.548-.708-.365-1.291-.876-1.749-1.534-.458-.657-.796-1.438-1.013-2.346-.218-.907-.326-1.906-.326-2.998 0-.962.108-1.896.326-2.804.217-.907.564-1.712 1.041-2.415.476-.703 1.096-1.267 1.86-1.693.763-.425 1.691-.638 2.783-.638.768 0 1.513.155 2.235.465.722.311 1.36.724 1.915 1.242l.222-1.291h2.554v14.282zm-2.984-10.604c-.509-.444-1.053-.798-1.631-1.062-.579-.264-1.191-.396-1.839-.396-.546 0-1.03.123-1.45.368-.421.245-.777.583-1.069 1.013-.291.43-.511.942-.659 1.534-.148.592-.222 1.24-.222 1.943 0 .731.06 1.395.18 1.992s.308 1.106.562 1.527c.254.422.583.748.985.979.403.232.886.347 1.45.347.638 0 1.27-.147 1.895-.444.625-.296 1.224-.698 1.797-1.208v-6.593zM142.468 41.434c-.148-.056-.34-.106-.576-.153-.236-.046-.479-.069-.729-.069-.407 0-.791.056-1.152.167-.361.111-.706.262-1.034.451-.329.19-.645.415-.951.673-.305.259-.606.533-.902.819v9.744h-2.984v-14.56h2.984v2.221c.314-.333.638-.647.972-.944.333-.296.682-.555 1.048-.777.365-.222.747-.397 1.145-.527.398-.129.819-.194 1.263-.194.342 0 .636.026.881.076.245.051.455.123.632.215l-.597 2.858zM147.576 46.416c.009.731.085 1.377.229 1.936.143.56.368 1.027.673 1.402.305.375.701.659 1.187.854.486.194 1.085.291 1.797.291.666 0 1.256-.113 1.77-.34.514-.226.988-.612 1.423-1.159l2.29 1.555c-.278.416-.588.782-.93 1.096-.343.315-.74.579-1.194.791-.454.213-.969.375-1.548.486-.579.111-1.238.167-1.978.167-2.323 0-4.037-.64-5.142-1.922-1.106-1.281-1.659-3.172-1.659-5.67 0-1.175.118-2.242.354-3.199.236-.958.615-1.778 1.138-2.464.523-.684 1.205-1.214 2.047-1.589.842-.375 1.874-.562 3.095-.562 1.083 0 2.006.162 2.769.486.763.324 1.385.782 1.867 1.374.481.592.833 1.305 1.055 2.137.222.833.333 1.754.333 2.762v1.568h-9.576zm6.621-2.193c0-1.212-.255-2.135-.763-2.769-.509-.633-1.309-.951-2.401-.951-.555 0-1.03.082-1.423.243-.393.162-.722.401-.985.715-.264.315-.475.704-.632 1.166-.157.463-.278.995-.361 1.596h6.565zM174.142 47.666c0 1.083-.192 1.992-.576 2.727-.384.736-.905 1.332-1.561 1.79-.657.458-1.423.787-2.297.985-.874.199-1.802.298-2.783.298-1.037 0-1.943-.097-2.72-.291-.777-.194-1.457-.458-2.04-.791s-1.08-.722-1.492-1.166c-.412-.444-.77-.92-1.076-1.43l2.554-1.846c.231.361.488.701.77 1.02.282.319.611.599.985.84.375.241.812.433 1.312.576.5.144 1.078.215 1.735.215.49 0 .969-.046 1.437-.139.467-.092.881-.245 1.242-.458.361-.213.65-.49.867-.833.217-.342.326-.768.326-1.277 0-.481-.104-.883-.312-1.208-.208-.324-.488-.597-.84-.819-.352-.222-.763-.407-1.235-.555-.472-.147-.976-.291-1.513-.43-.981-.25-1.892-.507-2.734-.77-.842-.264-1.573-.599-2.193-1.006-.62-.407-1.108-.925-1.464-1.555-.357-.629-.534-1.434-.534-2.415 0-.869.148-1.653.444-2.353.296-.698.731-1.295 1.305-1.79.573-.494 1.288-.874 2.144-1.138.856-.264 1.839-.396 2.949-.396.833 0 1.594.076 2.283.229.689.153 1.314.375 1.874.666.56.291 1.062.652 1.506 1.083s.833.919 1.166 1.464l-2.512 1.874c-.509-.814-1.11-1.424-1.804-1.832-.694-.407-1.541-.611-2.54-.611-1.083 0-1.941.222-2.575.666-.634.444-.951 1.074-.951 1.888 0 .408.085.748.257 1.02.171.273.435.512.791.715.356.204.805.387 1.346.548.541.162 1.182.331 1.922.507.573.139 1.131.287 1.673.444.541.158 1.055.34 1.541.548.486.208.932.454 1.339.736.407.283.756.623 1.048 1.02.291.398.52.863.687 1.395.165.534.249 1.152.249 1.855zM193.087 57.27c-.25.083-.53.157-.84.222-.31.064-.625.115-.944.153-.319.036-.629.064-.93.083-.301.018-.562.028-.784.028-.953 0-1.781-.102-2.484-.305-.704-.204-1.305-.498-1.804-.881-.5-.384-.902-.845-1.208-1.381-.305-.537-.541-1.138-.708-1.804-2.119-.269-3.725-1.221-4.816-2.859-1.092-1.638-1.638-3.992-1.638-7.065 0-1.582.15-2.993.451-4.233.301-1.24.777-2.288 1.43-3.144.652-.855 1.489-1.508 2.512-1.957 1.022-.448 2.251-.673 3.685-.673 1.425 0 2.644.227 3.657.68 1.013.454 1.843 1.109 2.491 1.964.648.856 1.122 1.904 1.423 3.144.301 1.24.451 2.647.451 4.219 0 2.841-.493 5.099-1.478 6.773-.985 1.675-2.515 2.702-4.587 3.081.065.278.16.522.285.736.125.213.294.39.507.534.213.143.479.252.798.326.319.074.701.111 1.145.111.167 0 .358-.01.576-.028.217-.019.442-.044.673-.076.231-.033.458-.072.68-.118l.597-.139.86 2.609zm-3.442-13.81c0-1.194-.083-2.236-.25-3.13-.167-.893-.433-1.635-.798-2.228-.366-.592-.844-1.036-1.437-1.332-.592-.296-1.309-.444-2.151-.444-.87 0-1.603.148-2.2.444-.597.297-1.083.741-1.457 1.332-.375.592-.645 1.335-.812 2.228-.167.894-.25 1.936-.25 3.13 0 1.203.083 2.251.25 3.144.167.894.437 1.636.812 2.228.375.592.861 1.034 1.457 1.326.597.291 1.33.437 2.2.437.861 0 1.587-.147 2.179-.444.592-.296 1.069-.743 1.43-1.339.361-.597.622-1.341.784-2.235.162-.894.243-1.932.243-3.117zM196.752 53.065v-19.21h3.234v16.253h8.397v2.956h-11.631z"/></g></svg>