<svg width="200" height="90" viewBox="0 0 200 90" xmlns="http://www.w3.org/2000/svg" xmlns:sketch="http://www.bohemiancoding.com/sketch/ns"><title>Salesforce</title><g sketch:type="MSShapeGroup" fill="none"><path d="M98.19 39.099l5.244.01c2.647-8.743 6.673-13.109 11.541-13.109 3.882 0 6.025 2.281 6.025 3.93 0 .771-.506 1.269-1.342 1.269-2.348 0-2.117-4.044-5.184-4.044-3.353 0-5.164 3.987-7.402 11.937l4.687.008-.335 1.289h-4.76l-6.075 19.715c-3.022 9.733-6.101 15.896-13.716 15.896-3.411 0-5.876-1.54-5.876-3.796 0-1.048.785-1.819 1.847-1.819 1.119 0 1.791.717 1.791 1.982 0 .331-.113.715-.113 1.101 0 .655.953 1.374 2.575 1.374 4.703 0 6.941-5.389 10.023-15.346l5.962-19.106h-5.206l.312-1.291M118.274 57c-2.151 0-3.481-.851-4.531-2.319-1.467-2.053-1.743-3.75-1.743-6.248 0-3.392.645-5.221 2.428-7.005 1.1-1.161 2.292-1.429 3.527-1.429 2.338 0 6.045 3.123 6.045 8.074-.001 4.776-2.243 8.926-5.726 8.926m-1.086 1c5.462 0 9.812-4.78 9.812-9.477 0-2.801-1.022-5.038-3.018-7.022-1.332-1.29-3.777-2.501-6.216-2.501-1.467 0-3.642.347-5.949 2.068-2.621 1.984-3.817 4.738-3.817 6.936 0 3.059.398 4.654 2.439 7.022 1.863 2.155 4.617 2.973 6.749 2.973" id="Shape" fill="#000"/><path d="M130.217 46.331c0-2.787-.829-3.263-1.269-3.427-.321-.117-1.027-.256-1.153-.304-.126-.046-.354-.13-.354-.301v-.263c0-.175.124-.334.354-.39.412-.1 2.462-.982 4.356-2.212.337-.217.925-.434.925.346l.222 2.994h.174c1.319-1.994 3.39-3.774 5.284-3.774 1.496 0 2.244.912 2.244 1.91 0 1.255-1.057 2.125-1.848 2.125-.483 0-.924-.175-1.276-.346-.352-.219-.878-.349-1.452-.349-.704 0-1.849.434-2.598 1.822-.267.48-.441 1.259-.441 1.389v9.111c0 1.342.308 1.776 1.234 1.776h2.069c.263 0 .307.13.307.391v.78c0 .262-.046.391-.221.391-.265 0-2.287-.129-4.664-.129-2.733 0-4.578.129-4.843.129-.178 0-.266-.088-.266-.434v-.737c0-.303.088-.391.483-.391h1.717c.66 0 .968-.262.968-.823.045-1.433.045-2.952.045-5.206v-4.077h.004zM144.21 47.054c0 2.327 1.053 4.952 2.238 6.55 1.448 1.852 3.295 2.196 4.781 2.196 2.197 0 3.341-.471 4.832-1.851.087-.087.223-.128.355 0l.436.431c.176.171.221.299 0 .561-1.271 1.422-4.083 3.059-7.067 3.059-2.328 0-4.783-.514-6.806-3.017-1.625-2.11-1.978-3.917-1.978-5.857 0-5.041 3.602-10.125 9.396-10.125 4.563 0 5.97 2.583 5.97 3.49-.045.992-.7 1.507-1.623 1.507-1.015 0-1.761-.559-2.416-1.725-.967-1.766-1.888-1.896-2.943-1.896-2.498-.002-5.175 2.241-5.175 6.677" id="Shape" fill="#000"/><path d="M161 45c.833-3.592 2.682-5 4.616-5 2.859 0 3.384 3.205 3.384 4.321 0 .436-.35.679-1.184.679h-6.816zm10.32 1.025c.704 0 1.238-.085 1.238-.689 0-1.68-1.415-6.335-6.481-6.335-2.205 0-4.408.389-6.301 2.286-2.337 2.283-2.776 5.17-2.776 6.848 0 3.016.395 4.609 1.939 6.807 1.629 2.326 4.405 3.059 6.92 3.059 3.921 0 6.212-2.974 7.006-4.696.221-.475.133-.606 0-.646l-.574-.302c-.127-.045-.306.04-.395.213-.749 1.426-2.642 2.932-5.332 2.932-3.528 0-6.262-3.189-6.262-7.411 0-.988.044-1.678.134-2.065h10.884z" id="Shape" fill="#000"/><path d="M29.008 56.745c-.216-.126-.216-.388-.262-.603l-.737-4.091c-.045-.215.085-.301.261-.343l.565-.133c.174-.041.301.044.392.261l1.084 2.109c.87 1.595 1.477 2.674 3.781 2.674 1.519 0 3.433-.904 3.433-2.932 0-1.938-.956-3.057-4.217-3.964-2.564-.732-5.128-2.065-5.128-5.468 0-2.972 2.825-5.255 6.084-5.255 2.085 0 3.213.518 3.998.905.65.302.739.516.782.775l.651 3.016c0 .173-.088.3-.305.387l-.52.173c-.174.044-.26 0-.392-.217l-1.476-1.98c-.522-.819-1.346-1.681-3.042-1.681-1.65 0-3.345.992-3.345 2.846 0 2.496 2.043 2.972 4.17 3.574 3.172.903 5.171 2.195 5.215 5.514-.045 3.489-2.911 5.688-6.605 5.688-2.128-.003-3.866-.865-4.387-1.255" id="Shape" fill="#A79F9D"/><path d="M62.451 44.147c0 2.219 0 8.672.043 9.991.043.729.215 1.325 1.111 1.325h1.926c.384 0 .469.13.469.386v.724c0 .256-.084.428-.254.428-.299 0-2.183-.125-4.832-.125-2.735 0-3.12.125-3.506.125-.215 0-.3-.172-.3-.428v-.724c0-.298.087-.386.557-.386h.73c.469 0 .897-.298.94-1.065.045-1.326.045-8.667.045-11.148v-2.692c0-3.031-.045-6.916-.13-8.026-.139-2.375-.041-2.38-1.836-2.692l-1.155-.169c-.165-.034-.258-.127-.258-.215v-.34c0-.127.128-.212.386-.3 1.895-.636 3.428-1.283 5-2.475.369-.279.642-.342.897-.342.299 0 .386.212.342.77-.043 2.347-.171 11.23-.171 13.576v3.801h-.003zM71 45c.835-3.592 2.681-5 4.615-5 2.859 0 3.385 3.205 3.385 4.321 0 .436-.351.679-1.187.679h-6.813zm10.323 1.025c.703 0 1.236-.085 1.236-.689 0-1.68-1.414-6.335-6.481-6.335-2.202 0-4.406.389-6.3 2.286-2.337 2.283-2.778 5.17-2.778 6.848 0 3.016.398 4.609 1.94 6.807 1.632 2.326 4.406 3.059 6.92 3.059 3.92 0 6.212-2.974 7.006-4.696.222-.475.131-.606 0-.646l-.574-.302c-.13-.045-.307.04-.394.213-.753 1.426-2.645 2.932-5.333 2.932-3.525 0-6.259-3.189-6.259-7.411 0-.988.043-1.678.132-2.065h10.886zM85.009 56.745c-.218-.126-.218-.388-.259-.603l-.742-4.091c-.043-.215.088-.301.262-.343l.566-.133c.172-.041.303.044.389.261l1.087 2.109c.868 1.595 1.475 2.674 3.779 2.674 1.521 0 3.431-.904 3.431-2.932 0-1.938-.956-3.057-4.215-3.964-2.562-.732-5.124-2.065-5.124-5.468 0-2.972 2.823-5.255 6.078-5.255 2.087 0 3.219.518 3.998.905.654.302.74.516.784.775l.651 3.016c0 .173-.085.3-.301.387l-.521.173c-.177.044-.261 0-.392-.217l-1.478-1.98c-.52-.819-1.347-1.681-3.042-1.681-1.65 0-3.346.992-3.346 2.846 0 2.496 2.042 2.972 4.173 3.574 3.171.903 5.171 2.195 5.212 5.515-.042 3.488-2.911 5.687-6.603 5.687-2.129-.003-3.866-.865-4.388-1.255" id="Shape" fill="#A79F9D"/><path d="M51 53.437c0 1.195-2.374 2.623-3.672 2.561-1.344-.068-2.328-.909-2.328-2.547 0-3.667 4.388-4.337 6-5.451v5.437zm2.641-3.202v-6.778c0-1.166-.043-2.16-.949-3.11-.604-.593-1.424-1.236-3.451-1.338-1.942-.096-3.452.548-5.265 1.539-1.769.946-2.976 2.53-2.976 3.912 0 .991.344 1.398 1.036 1.433 1.765.087 2.283-.838 2.283-2.349 0-.777-.386-1.444.217-1.976.605-.532 1.943-1.099 2.805-1.054 1.253.062 2.114.494 2.59 1.077.475.586.516 1.711.603 2.45v2.93c-.688.572-2.933 1.496-4.875 2.264-3.407 1.342-4.314 3.023-4.314 5.008 0 2.722 1.554 3.662 2.589 3.716.948.048 1.725.085 2.546-.134 1.941-.548 3.367-1.389 4.269-2.421l.088.003c.388 1.789 1.509 2.592 3.062 2.592 1.87 0 2.59-1.321 2.933-1.953.259-.418.172-.636.042-.771l-.432-.369c-.173-.139-.259-.058-.43.151-.217.292-.389.607-1.078.576-.776-.04-1.294-.386-1.294-2.846v-2.553z" fill="#A79F9D"/></g></svg>